<svg xmlns="http://www.w3.org/2000/svg" width="48" height="48" viewBox="0 0 48 48">
  <title>icon</title>
  <g>
    <rect width="48" height="48" rx="6.13"/>
    <path d="M41.87,2A4.13,4.13,0,0,1,46,6.13V41.87A4.13,4.13,0,0,1,41.87,46H6.13A4.13,4.13,0,0,1,2,41.87V6.13A4.13,4.13,0,0,1,6.13,2H41.87m0-2H6.13A6.15,6.15,0,0,0,0,6.13V41.87A6.15,6.15,0,0,0,6.13,48H41.87A6.15,6.15,0,0,0,48,41.87V6.13A6.15,6.15,0,0,0,41.87,0Z" fill="#8f67ff"/>
  </g>
  <path d="M34.16,15.37a2,2,0,0,0-2.79.47L22.74,27.92l-6.33-6.33a2,2,0,0,0-2.82,2.82l8,8,.13.1c.05,0,.07.08.12.12s.19.09.28.14l.2.1A2,2,0,0,0,23,33h0a2.06,2.06,0,0,0,.83-.2c.08,0,.15-.1.23-.15a1.67,1.67,0,0,0,.35-.24.83.83,0,0,0,.11-.15s.08-.06.11-.1l10-14A2,2,0,0,0,34.16,15.37Z" fill="#555"/>
</svg>
