<svg xmlns="http://www.w3.org/2000/svg" width="128" height="128" viewBox="0 0 128 128">
  <title>icon_big_190621</title>
  <g>
    <path d="M52,74H68.55a1,1,0,0,0,0-2H52a1,1,0,0,0,0,2Z" fill="#8f67ff"/>
    <path d="M76,77.94H52a1,1,0,0,0,0,2H76a1,1,0,0,0,0-2Z" fill="#8f67ff"/>
    <path d="M103.07,49.35V29.9H82.17L67.76,16.48a5.54,5.54,0,0,0-7.52,0L45.83,29.9H24.93V49.35L15,58.6V113h98V58.6ZM48.32,84.92a1,1,0,0,0-.22.6,1,1,0,0,0,.22.59L17,109.92a.06.06,0,0,1,0-.06V61.17l.09-.05,7.84,6h0Zm2.78,1.6H76.9L109,111H19ZM111,61.17v48.69l-.09,0-32-24.39L103.07,67.1h0l7.84-6Zm-.35-2a2.17,2.17,0,0,0-1,.39l-6.62,5V52.08ZM61.6,17.94a3.54,3.54,0,0,1,4.8,0l12.84,12H48.76Zm-34.67,14h74.14V66.1L77.14,84.33l-.24.19H51.1L26.93,66.11V31.9Zm-2,32.68-6.62-5a2.17,2.17,0,0,0-1-.39l7.58-7.06Z" fill="#8f67ff"/>
    <polygon points="59 58.62 79 62.37 79 42.37 59 46.12 59 58.62" fill="#8f67ff"/>
    <polygon points="58.63 60.5 52 61.78 52 42.95 58.63 44.24 65.88 42.88 49 39.73 49 65 65.88 61.86 58.63 60.5" fill="#8f67ff"/>
  </g>
</svg>
