<svg xmlns="http://www.w3.org/2000/svg" width="48" height="48" viewBox="0 0 48 48">
  <title>icon</title>
  <g>
    <path d="M40.08,34.41,26.6,11.05a3,3,0,0,0-5.2,0L7.87,34.5a3,3,0,0,0,.5,3.66,3.07,3.07,0,0,0,2.19.84h27a3,3,0,0,0,2.85-2A3.08,3.08,0,0,0,40.08,34.41ZM38.4,36.5a1,1,0,0,1-.86.5H10.47a1,1,0,0,1-.87-1.5L23.14,12.05a1,1,0,0,1,1.73,0L38.4,35.5A1,1,0,0,1,38.4,36.5Z" fill="#fff"/>
    <path d="M25.11,31.06a2,2,0,0,0-.35-.19,2.26,2.26,0,0,0-.37-.11,2,2,0,0,0-.78,0,2.38,2.38,0,0,0-.38.11,2.27,2.27,0,0,0-.34.19,2.16,2.16,0,0,0-.55.55,2.27,2.27,0,0,0-.19.34,1.82,1.82,0,0,0-.11.38,1.92,1.92,0,0,0,0,.78,1.82,1.82,0,0,0,.11.38,2.27,2.27,0,0,0,.19.34,1.42,1.42,0,0,0,.25.3,2,2,0,0,0,1.41.59,1.72,1.72,0,0,0,.39,0,1.58,1.58,0,0,0,.37-.11,1.48,1.48,0,0,0,.35-.19,1.42,1.42,0,0,0,.3-.25,2,2,0,0,0,0-2.82A1.42,1.42,0,0,0,25.11,31.06Z" fill="#fff"/>
    <path d="M23.35,29.62A2,2,0,0,0,26,27.72v-6a2,2,0,0,0-2.65-1.89,2,2,0,0,0-1.35,2v5.83A2,2,0,0,0,23.35,29.62Z" fill="#fff"/>
  </g>
</svg>
