<svg xmlns="http://www.w3.org/2000/svg" width="48" height="48" viewBox="0 0 48 48">
  <title>icon</title>
  <g>
    <path d="M12.39,32.91a1,1,0,0,0,1.21-.31C17.88,26.84,22.48,24,28,23.68v4.89a1,1,0,0,0,1.68.73l10.8-10.1a1,1,0,0,0,.32-.73,1,1,0,0,0-.32-.73L29.68,7.67a1,1,0,0,0-1.08-.19,1,1,0,0,0-.6.92v4.9c-11.1,2-14.9,12.39-16.18,18.49A1,1,0,0,0,12.39,32.91ZM29.14,15.14a1,1,0,0,0,.86-1V10.7l8.33,7.77L30,26.26v-3.6a1,1,0,0,0-1-1,19.06,19.06,0,0,0-14,6.17C17,22.44,21,16.28,29.14,15.14Z" fill="#fff"/>
    <path d="M40,30v7a3,3,0,0,1-3,3H11a3,3,0,0,1-3-3V11a3,3,0,0,1,3-3h7V6H11a5,5,0,0,0-5,5V37a5,5,0,0,0,5,5H37a5,5,0,0,0,5-5V30Z" fill="#fff"/>
  </g>
</svg>
