<svg xmlns="http://www.w3.org/2000/svg" width="48" height="48" viewBox="0 0 48 48">
  <title>icon</title>
  <g>
    <path d="M30,1.5h1.5a.76.76,0,0,0,.75-.75A.76.76,0,0,0,31.5,0H30a.76.76,0,0,0-.75.75A.76.76,0,0,0,30,1.5Z" fill="#acacac"/>
    <path d="M25.5,1.5H27a.76.76,0,0,0,.75-.75A.76.76,0,0,0,27,0H25.5a.76.76,0,0,0-.75.75A.76.76,0,0,0,25.5,1.5Z" fill="#acacac"/>
    <path d="M21,1.5h1.5a.76.76,0,0,0,.75-.75A.76.76,0,0,0,22.5,0H21a.76.76,0,0,0-.75.75A.76.76,0,0,0,21,1.5Z" fill="#acacac"/>
    <path d="M16.5,1.5H18a.76.76,0,0,0,.75-.75A.76.76,0,0,0,18,0H16.5a.76.76,0,0,0-.75.75A.76.76,0,0,0,16.5,1.5Z" fill="#acacac"/>
    <path d="M14.25.75A.76.76,0,0,0,13.5,0H12a.76.76,0,0,0-.75.75A.76.76,0,0,0,12,1.5h1.5A.76.76,0,0,0,14.25.75Z" fill="#acacac"/>
    <path d="M9.75.75A.76.76,0,0,0,9,0H7.5a.76.76,0,0,0-.75.75.76.76,0,0,0,.75.75H9A.76.76,0,0,0,9.75.75Z" fill="#acacac"/>
    <path d="M3.52,1.67a3,3,0,0,1,1-.17A.76.76,0,0,0,5.25.75.76.76,0,0,0,4.5,0H4.19A4.52,4.52,0,0,0,3,.25a.74.74,0,0,0-.46,1,.74.74,0,0,0,.7.51A1,1,0,0,0,3.52,1.67Z" fill="#acacac"/>
    <path d="M.68,4.35a.55.55,0,0,0,.18,0,.75.75,0,0,0,.72-.57A2.84,2.84,0,0,1,2,2.89a.76.76,0,0,0-.23-1,.72.72,0,0,0-.4-.12.74.74,0,0,0-.63.34l-.06.09H.57a4.63,4.63,0,0,0-.35.79h0v0h0a1.05,1.05,0,0,0,0,.19A.75.75,0,0,0,.68,4.35Z" fill="#acacac"/>
    <path d="M.75,8.69a.76.76,0,0,0,.75-.75V6.44a.75.75,0,0,0-1.5,0v1.5A.76.76,0,0,0,.75,8.69Z" fill="#acacac"/>
    <path d="M.75,13.19a.76.76,0,0,0,.75-.75v-1.5a.75.75,0,0,0-1.5,0v1.5A.76.76,0,0,0,.75,13.19Z" fill="#acacac"/>
    <path d="M.75,17.69a.76.76,0,0,0,.75-.75v-1.5a.75.75,0,1,0-1.5,0v1.5A.76.76,0,0,0,.75,17.69Z" fill="#acacac"/>
    <path d="M.75,22.19a.76.76,0,0,0,.75-.75v-1.5a.75.75,0,0,0-1.5,0v1.5A.76.76,0,0,0,.75,22.19Z" fill="#acacac"/>
    <path d="M.75,26.69a.76.76,0,0,0,.75-.75v-1.5a.75.75,0,0,0-1.5,0v1.5A.76.76,0,0,0,.75,26.69Z" fill="#acacac"/>
    <path d="M.75,31.19a.76.76,0,0,0,.75-.75v-1.5a.75.75,0,0,0-1.5,0v1.5A.76.76,0,0,0,.75,31.19Z" fill="#acacac"/>
    <path d="M1.5,34.94v-1.5a.75.75,0,0,0-1.5,0v1.5a.76.76,0,0,0,.75.75A.76.76,0,0,0,1.5,34.94Z" fill="#acacac"/>
    <path d="M1.77,37.25a.73.73,0,0,0-.68-.44.7.7,0,0,0-.31.07.75.75,0,0,0-.37,1c.08.16.16.31.25.46h0v0H.81v0h0v0h0a3.64,3.64,0,0,0,.4.48v0h0a.78.78,0,0,0,.55.23.73.73,0,0,0,.51-.21.75.75,0,0,0,0-1.06A2.88,2.88,0,0,1,1.77,37.25Z" fill="#acacac"/>
    <path d="M5.37,39H4.5a3,3,0,0,1-.42,0H4a.75.75,0,0,0-.11,1.5h0a2,2,0,0,0,.34,0H5.37a.75.75,0,0,0,0-1.5Z" fill="#acacac"/>
    <path d="M9.87,39H8.37a.75.75,0,1,0,0,1.5h1.5a.75.75,0,0,0,0-1.5Z" fill="#acacac"/>
    <path d="M14.37,39h-1.5a.75.75,0,1,0,0,1.5h1.5a.75.75,0,0,0,0-1.5Z" fill="#acacac"/>
    <path d="M18.87,39h-1.5a.75.75,0,0,0,0,1.5h1.5a.75.75,0,1,0,0-1.5Z" fill="#acacac"/>
    <path d="M23.37,39h-1.5a.75.75,0,0,0,0,1.5h1.5a.75.75,0,1,0,0-1.5Z" fill="#acacac"/>
    <path d="M39.75,18.94a.76.76,0,0,0-.75.75v1.5a.75.75,0,0,0,1.5,0v-1.5A.76.76,0,0,0,39.75,18.94Z" fill="#acacac"/>
    <path d="M40.5,15.19a.75.75,0,1,0-1.5,0v1.5a.75.75,0,0,0,1.5,0Z" fill="#acacac"/>
    <path d="M40.5,10.69a.75.75,0,1,0-1.5,0v1.5a.75.75,0,0,0,1.5,0Z" fill="#acacac"/>
    <path d="M40.5,6.19a.75.75,0,1,0-1.5,0v1.5a.75.75,0,0,0,1.5,0Z" fill="#acacac"/>
    <path d="M38.87,3.64a.76.76,0,0,0,.72.54.83.83,0,0,0,.22,0,.75.75,0,0,0,.5-.94A4.37,4.37,0,0,0,40,2.53h-.15a4,4,0,0,0-.24-.38A.77.77,0,0,0,39,1.56a.73.73,0,0,0-.44.15.75.75,0,0,0-.17,1A3,3,0,0,1,38.87,3.64Z" fill="#acacac"/>
    <path d="M34.5,1.5H36a2.92,2.92,0,0,1,.83.12.75.75,0,0,0,.93-.52.75.75,0,0,0-.51-.92L37,.11h-.23l-.43,0H34.5a.76.76,0,0,0-.75.75A.76.76,0,0,0,34.5,1.5Z" fill="#acacac"/>
    <path d="M48,36.14a.71.71,0,0,0-.27-.41L35.25,26.67V18a4.52,4.52,0,0,0-4.5-4.5H18A4.52,4.52,0,0,0,13.5,18V30.75a4.52,4.52,0,0,0,4.5,4.5H30.87l1,9.62a.7.7,0,0,0,.77.63.66.66,0,0,0,.44-.21l3.67-3.86,3.6,6.23a.71.71,0,0,0,1,.26l4.29-2.48a.71.71,0,0,0,.27-1L42.3,38.24,47.46,37A.7.7,0,0,0,48,36.14Zm-6.94,1a.71.71,0,0,0-.52.86,1.34,1.34,0,0,0,.07.18l3.72,6.43-3.06,1.77L37.53,39.9a.69.69,0,0,0-1-.26.48.48,0,0,0-.16.12L33.14,43.2,31.27,25.52,45.64,36Z" fill="#acacac"/>
  </g>
</svg>
