<svg xmlns="http://www.w3.org/2000/svg" width="48" height="48" viewBox="0 0 48 48">
  <title>icon</title>
  <g>
    <path d="M41,10H7a3,3,0,0,0-3,3V35a3,3,0,0,0,3,3H41a3,3,0,0,0,3-3V13A3,3,0,0,0,41,10Zm1,25a1,1,0,0,1-1,1H7a1,1,0,0,1-1-1V13a1,1,0,0,1,1-1H41a1,1,0,0,1,1,1Z" fill="#fff"/>
    <path d="M36,15H26a1,1,0,0,0,0,2H36a1,1,0,0,1,1,1v6a1,1,0,0,0,2,0V18A3,3,0,0,0,36,15Z" fill="#fff"/>
    <path d="M22,31H12a1,1,0,0,1-1-1V24a1,1,0,0,0-2,0v6a3,3,0,0,0,3,3H22a1,1,0,0,0,0-2Z" fill="#fff"/>
  </g>
</svg>
