<svg xmlns="http://www.w3.org/2000/svg" width="48" height="48" viewBox="0 0 48 48">
  <title>icon</title>
  <g>
    <path d="M10.48,36.57a5,5,0,0,0,5,5l16.81.15h0a5,5,0,0,0,5-5l.18-20.63-26.82-.23ZM12.65,18l22.81.2L35.3,36.78a3,3,0,0,1-.9,2.11,3.06,3.06,0,0,1-2.13.87l-16.81-.15a3,3,0,0,1-3-3Z" fill="#fff"/>
    <path d="M37,10.46l-26-.22h0a1,1,0,0,0,0,2l26,.22h0a1,1,0,0,0,0-2Z" fill="#fff"/>
    <path d="M21,8.24l6,0h0a1,1,0,0,0,1-1,1,1,0,0,0-1-1l-6,0a1,1,0,0,0-1,1A1,1,0,0,0,21,8.24Z" fill="#fff"/>
    <path d="M18.89,36.24h0a1,1,0,0,0,1-1l.1-12a1,1,0,0,0-1-1h0a1,1,0,0,0-1,1l-.1,12A1,1,0,0,0,18.89,36.24Z" fill="#fff"/>
    <path d="M28.89,36.24h0a1,1,0,0,0,1-1l.1-12a1,1,0,0,0-1-1h0a1,1,0,0,0-1,1l-.1,12A1,1,0,0,0,28.89,36.24Z" fill="#fff"/>
  </g>
</svg>
