<svg xmlns="http://www.w3.org/2000/svg" width="48" height="48" viewBox="0 0 48 48">
  <title>icon</title>
  <g>
    <path d="M41,10H31a1,1,0,0,0,0,2H41a1,1,0,0,1,1,1v6a1,1,0,0,0,2,0V13A3,3,0,0,0,41,10Z" fill="#fff"/>
    <path d="M17,36H7a1,1,0,0,1-1-1V29a1,1,0,0,0-2,0v6a3,3,0,0,0,3,3H17a1,1,0,0,0,0-2Z" fill="#fff"/>
    <path d="M33,16H15a3,3,0,0,0-3,3V29a3,3,0,0,0,3,3H33a3,3,0,0,0,3-3V19A3,3,0,0,0,33,16Zm1,13a1,1,0,0,1-1,1H15a1,1,0,0,1-1-1V19a1,1,0,0,1,1-1H33a1,1,0,0,1,1,1Z" fill="#fff"/>
  </g>
</svg>
