<svg xmlns="http://www.w3.org/2000/svg" width="48" height="48" viewBox="0 0 48 48">
  <title>icon</title>
  <path d="M35.55,23.52,35,23.09V20.5A11,11,0,0,0,26,9.69a1.23,1.23,0,0,0,0-.19v-2a2,2,0,0,0-4,0v2a1.23,1.23,0,0,0,0,.19A11,11,0,0,0,13,20.5v2.59l-.55.43c-2.1,1.61-6.45,5-6.45,8.54v1.41a4,4,0,0,0,4,4H20a4,4,0,0,0,8,0H38a4,4,0,0,0,4-4V32.06C42,28.49,37.65,25.13,35.55,23.52Zm4.45,10a2,2,0,0,1-2,2H10a2,2,0,0,1-2-2V32.06c0-2.59,4-5.65,5.67-7,1-.79,1.33-1,1.33-1.6v-3a9,9,0,0,1,18,0v3c0,.57.31.81,1.33,1.6,1.7,1.31,5.67,4.37,5.67,7Z" fill="#fff"/>
</svg>
