<svg xmlns="http://www.w3.org/2000/svg" width="48" height="48" viewBox="0 0 48 48">
  <title>icon</title>
  <g>
    <path d="M41,10H7a3,3,0,0,0-3,3V35a3,3,0,0,0,3,3H41a3,3,0,0,0,3-3V13A3,3,0,0,0,41,10Zm1,25a1,1,0,0,1-1,1H7a1,1,0,0,1-1-1V33.52l9-6.3,9.43,6.6a.91.91,0,0,0,.17.09l.1,0a1,1,0,0,0,.3,0,1,1,0,0,0,.45-.11,53,53,0,0,1,.35-.29L34,22.67l8,10.66Zm0-5-7.2-9.6a1.09,1.09,0,0,0-.11-.1.81.81,0,0,0-.09-.1l-.05,0a.82.82,0,0,0-.19-.09.58.58,0,0,0-.17-.06.66.66,0,0,0-.2,0,.55.55,0,0,0-.18,0,.64.64,0,0,0-.18.06.76.76,0,0,0-.18.09l-.05,0a.71.71,0,0,1-.2.2L24.78,31.63l-9.21-6.45h0a1.33,1.33,0,0,0-.21-.09L15.19,25h-.38l-.15.06a1.33,1.33,0,0,0-.21.09h0L6,31.08V13a1,1,0,0,1,1-1H41a1,1,0,0,1,1,1Z" fill="#acacac"/>
    <path d="M18.5,15A4.5,4.5,0,1,0,23,19.5,4.51,4.51,0,0,0,18.5,15Zm0,7A2.5,2.5,0,1,1,21,19.5,2.5,2.5,0,0,1,18.5,22Z" fill="#acacac"/>
  </g>
</svg>
