<svg xmlns="http://www.w3.org/2000/svg" width="48" height="48" viewBox="0 0 48 48">
  <title>icon</title>
  <g>
    <path d="M17.66,39.74l.05,0,22-22a1,1,0,0,0,0-1.42l-8-8a1,1,0,0,0-1.42,0l-22,22,0,.05a1.14,1.14,0,0,0-.15.23.36.36,0,0,0,0,.09A1,1,0,0,0,8,31v8a1,1,0,0,0,1,1h8a1,1,0,0,0,.34-.07l.09,0A1.14,1.14,0,0,0,17.66,39.74ZM10.41,31,27,14.41,33.59,21,17,37.59ZM31,10.41,37.59,17,35,19.59,28.41,13Z" fill="#fff"/>
    <path d="M39,38H23a1,1,0,0,0,0,2H39a1,1,0,0,0,0-2Z" fill="#fff"/>
  </g>
</svg>
