<svg xmlns="http://www.w3.org/2000/svg" width="48" height="48" viewBox="0 0 48 48">
  <title>icon</title>
  <g>
    <path d="M26.51,11.85a3,3,0,0,0-3.07,0L14.69,18H9a3,3,0,0,0-3,3v6a3,3,0,0,0,3,3h5.69l8.82,6.16a3,3,0,0,0,3,0A3,3,0,0,0,28,33.55V14.45A3,3,0,0,0,26.51,11.85ZM26,33.55a1,1,0,0,1-.5.87.94.94,0,0,1-.92,0L15.31,28H9a1,1,0,0,1-1-1V21a1,1,0,0,1,1-1h6.31l9.19-6.42a1,1,0,0,1,1,0,1,1,0,0,1,.5.87Z" fill="#fff"/>
    <path d="M32.67,14.93a1,1,0,0,0-1.41-.11,1,1,0,0,0-.12,1.41,12,12,0,0,1,0,15.54,1,1,0,0,0,1.53,1.3,14,14,0,0,0,0-18.14Z" fill="#fff"/>
    <path d="M36.9,10.66a1,1,0,0,0-1.41-.08A1,1,0,0,0,35.41,12a18,18,0,0,1,0,24,1,1,0,0,0,.08,1.42,1,1,0,0,0,1.41-.08,20,20,0,0,0,0-26.68Z" fill="#fff"/>
  </g>
</svg>
