<svg xmlns="http://www.w3.org/2000/svg" width="48" height="48" viewBox="0 0 48 48">
  <title>icon</title>
  <g>
    <path d="M24,0A24,24,0,1,0,48,24,24,24,0,0,0,24,0Zm0,46A22,22,0,1,1,46,24,22,22,0,0,1,24,46Z" fill="#fff"/>
    <path d="M36.74,21.29a8.72,8.72,0,0,0,.6-3.88,3.21,3.21,0,0,0-2.82-3.06c-1.31-.23-2.64-.42-3.94-.73a11.36,11.36,0,0,1-3.88-1.68c-2.64-1.82-5.19-1.38-7.39.73l-.07,0a10.6,10.6,0,0,0-2.32.13,4.41,4.41,0,0,0-3.67,3.08,17.59,17.59,0,0,0-.65,2.57,25.7,25.7,0,0,1-1.74,6.07A9.56,9.56,0,0,0,10,27.88a4.68,4.68,0,0,0,1.91,4.39,9.79,9.79,0,0,0,4.4,1.62h0l.09,0A9.38,9.38,0,0,0,21.35,37a5.28,5.28,0,0,0,4.73-.85,19.77,19.77,0,0,0,2-1.66,22.92,22.92,0,0,1,6.79-4.65,4.91,4.91,0,0,0,2.77-2.67c.83-2.07.2-3.94-.87-5.74ZM30.1,26.76a6.82,6.82,0,0,1-6,4.52c-.21,0-.43,0-.65,0a7.29,7.29,0,0,1-7.28-8.07,8,8,0,0,1,6.75-6.78,6.25,6.25,0,0,1,6.92,4.18A8.33,8.33,0,0,1,30.1,26.76Z" fill="#fff"/>
  </g>
</svg>
